<mxfile host="app.diagrams.net" agent="Mozilla/5.0 (Windows NT 10.0; Win64; x64) AppleWebKit/537.36 (KHTML, like Gecko) Chrome/137.0.0.0 Safari/537.36" version="27.0.5">
  <diagram name="Halaman-1" id="5PK11qqqUlIXNeI4G_Cf">
    <mxGraphModel dx="1156" dy="574" grid="1" gridSize="10" guides="1" tooltips="1" connect="1" arrows="1" fold="1" page="1" pageScale="1" pageWidth="827" pageHeight="1169" math="0" shadow="0">
      <root>
        <mxCell id="0" />
        <mxCell id="1" parent="0" />
        <mxCell id="e_UlXS3KdR4UI5Fzrc_h-4" value="" style="edgeStyle=orthogonalEdgeStyle;rounded=0;orthogonalLoop=1;jettySize=auto;html=1;" edge="1" parent="1" source="e_UlXS3KdR4UI5Fzrc_h-1" target="e_UlXS3KdR4UI5Fzrc_h-3">
          <mxGeometry relative="1" as="geometry" />
        </mxCell>
        <mxCell id="e_UlXS3KdR4UI5Fzrc_h-1" value="MULAI" style="ellipse;whiteSpace=wrap;html=1;" vertex="1" parent="1">
          <mxGeometry x="354" y="40" width="120" height="80" as="geometry" />
        </mxCell>
        <mxCell id="e_UlXS3KdR4UI5Fzrc_h-6" value="" style="edgeStyle=orthogonalEdgeStyle;rounded=0;orthogonalLoop=1;jettySize=auto;html=1;" edge="1" parent="1" source="e_UlXS3KdR4UI5Fzrc_h-3" target="e_UlXS3KdR4UI5Fzrc_h-5">
          <mxGeometry relative="1" as="geometry" />
        </mxCell>
        <mxCell id="e_UlXS3KdR4UI5Fzrc_h-3" value="membuat file&amp;nbsp;" style="whiteSpace=wrap;html=1;" vertex="1" parent="1">
          <mxGeometry x="354" y="160" width="120" height="60" as="geometry" />
        </mxCell>
        <mxCell id="e_UlXS3KdR4UI5Fzrc_h-8" value="" style="edgeStyle=orthogonalEdgeStyle;rounded=0;orthogonalLoop=1;jettySize=auto;html=1;" edge="1" parent="1" source="e_UlXS3KdR4UI5Fzrc_h-5" target="e_UlXS3KdR4UI5Fzrc_h-7">
          <mxGeometry relative="1" as="geometry" />
        </mxCell>
        <mxCell id="e_UlXS3KdR4UI5Fzrc_h-5" value="menambahkan struktur html" style="whiteSpace=wrap;html=1;" vertex="1" parent="1">
          <mxGeometry x="354" y="250" width="120" height="60" as="geometry" />
        </mxCell>
        <mxCell id="e_UlXS3KdR4UI5Fzrc_h-10" value="" style="edgeStyle=orthogonalEdgeStyle;rounded=0;orthogonalLoop=1;jettySize=auto;html=1;" edge="1" parent="1" source="e_UlXS3KdR4UI5Fzrc_h-7" target="e_UlXS3KdR4UI5Fzrc_h-9">
          <mxGeometry relative="1" as="geometry" />
        </mxCell>
        <mxCell id="e_UlXS3KdR4UI5Fzrc_h-7" value="menambahkan navbar" style="whiteSpace=wrap;html=1;" vertex="1" parent="1">
          <mxGeometry x="354" y="340" width="120" height="60" as="geometry" />
        </mxCell>
        <mxCell id="e_UlXS3KdR4UI5Fzrc_h-12" value="" style="edgeStyle=orthogonalEdgeStyle;rounded=0;orthogonalLoop=1;jettySize=auto;html=1;" edge="1" parent="1" source="e_UlXS3KdR4UI5Fzrc_h-9" target="e_UlXS3KdR4UI5Fzrc_h-11">
          <mxGeometry relative="1" as="geometry" />
        </mxCell>
        <mxCell id="e_UlXS3KdR4UI5Fzrc_h-9" value="menambahkan section&amp;nbsp;&lt;div&gt;&quot;about kantin&quot;&lt;/div&gt;" style="whiteSpace=wrap;html=1;" vertex="1" parent="1">
          <mxGeometry x="354" y="440" width="120" height="60" as="geometry" />
        </mxCell>
        <mxCell id="e_UlXS3KdR4UI5Fzrc_h-14" value="" style="edgeStyle=orthogonalEdgeStyle;rounded=0;orthogonalLoop=1;jettySize=auto;html=1;" edge="1" parent="1" source="e_UlXS3KdR4UI5Fzrc_h-11" target="e_UlXS3KdR4UI5Fzrc_h-13">
          <mxGeometry relative="1" as="geometry" />
        </mxCell>
        <mxCell id="e_UlXS3KdR4UI5Fzrc_h-11" value="menambahkan section&amp;nbsp;&lt;div&gt;&quot;cafetaria list&quot;&lt;/div&gt;" style="whiteSpace=wrap;html=1;" vertex="1" parent="1">
          <mxGeometry x="354" y="540" width="120" height="60" as="geometry" />
        </mxCell>
        <mxCell id="e_UlXS3KdR4UI5Fzrc_h-20" value="" style="edgeStyle=orthogonalEdgeStyle;rounded=0;orthogonalLoop=1;jettySize=auto;html=1;" edge="1" parent="1" source="e_UlXS3KdR4UI5Fzrc_h-13" target="e_UlXS3KdR4UI5Fzrc_h-19">
          <mxGeometry relative="1" as="geometry" />
        </mxCell>
        <mxCell id="e_UlXS3KdR4UI5Fzrc_h-13" value="menambahkan section&amp;nbsp;&lt;div&gt;&quot;how to buy&quot;&lt;/div&gt;" style="whiteSpace=wrap;html=1;" vertex="1" parent="1">
          <mxGeometry x="354" y="640" width="120" height="60" as="geometry" />
        </mxCell>
        <mxCell id="e_UlXS3KdR4UI5Fzrc_h-22" value="" style="edgeStyle=orthogonalEdgeStyle;rounded=0;orthogonalLoop=1;jettySize=auto;html=1;" edge="1" parent="1" source="e_UlXS3KdR4UI5Fzrc_h-19" target="e_UlXS3KdR4UI5Fzrc_h-21">
          <mxGeometry relative="1" as="geometry" />
        </mxCell>
        <mxCell id="e_UlXS3KdR4UI5Fzrc_h-19" value="membuat koneksi&amp;nbsp;&lt;div&gt;ke database&lt;/div&gt;" style="whiteSpace=wrap;html=1;" vertex="1" parent="1">
          <mxGeometry x="354" y="740" width="120" height="60" as="geometry" />
        </mxCell>
        <mxCell id="e_UlXS3KdR4UI5Fzrc_h-24" value="" style="edgeStyle=orthogonalEdgeStyle;rounded=0;orthogonalLoop=1;jettySize=auto;html=1;" edge="1" parent="1" source="e_UlXS3KdR4UI5Fzrc_h-21" target="e_UlXS3KdR4UI5Fzrc_h-23">
          <mxGeometry relative="1" as="geometry" />
        </mxCell>
        <mxCell id="e_UlXS3KdR4UI5Fzrc_h-27" value="" style="edgeStyle=orthogonalEdgeStyle;rounded=0;orthogonalLoop=1;jettySize=auto;html=1;" edge="1" parent="1" source="e_UlXS3KdR4UI5Fzrc_h-21" target="e_UlXS3KdR4UI5Fzrc_h-26">
          <mxGeometry relative="1" as="geometry" />
        </mxCell>
        <mxCell id="e_UlXS3KdR4UI5Fzrc_h-21" value="cek apakah&amp;nbsp;&lt;div&gt;berhasil&amp;nbsp;&lt;/div&gt;&lt;div&gt;terkoneksi&lt;/div&gt;" style="rhombus;whiteSpace=wrap;html=1;" vertex="1" parent="1">
          <mxGeometry x="356" y="830" width="116" height="110" as="geometry" />
        </mxCell>
        <mxCell id="e_UlXS3KdR4UI5Fzrc_h-25" style="edgeStyle=orthogonalEdgeStyle;rounded=0;orthogonalLoop=1;jettySize=auto;html=1;entryX=1;entryY=0.5;entryDx=0;entryDy=0;" edge="1" parent="1" source="e_UlXS3KdR4UI5Fzrc_h-23" target="e_UlXS3KdR4UI5Fzrc_h-19">
          <mxGeometry relative="1" as="geometry">
            <Array as="points">
              <mxPoint x="580" y="770" />
            </Array>
          </mxGeometry>
        </mxCell>
        <mxCell id="e_UlXS3KdR4UI5Fzrc_h-23" value="menampilkan error koneksi" style="whiteSpace=wrap;html=1;" vertex="1" parent="1">
          <mxGeometry x="530" y="855" width="120" height="60" as="geometry" />
        </mxCell>
        <mxCell id="e_UlXS3KdR4UI5Fzrc_h-29" value="" style="edgeStyle=orthogonalEdgeStyle;rounded=0;orthogonalLoop=1;jettySize=auto;html=1;" edge="1" parent="1" source="e_UlXS3KdR4UI5Fzrc_h-26" target="e_UlXS3KdR4UI5Fzrc_h-28">
          <mxGeometry relative="1" as="geometry" />
        </mxCell>
        <mxCell id="e_UlXS3KdR4UI5Fzrc_h-26" value="berhasil koneksi" style="whiteSpace=wrap;html=1;" vertex="1" parent="1">
          <mxGeometry x="354" y="980" width="120" height="60" as="geometry" />
        </mxCell>
        <mxCell id="e_UlXS3KdR4UI5Fzrc_h-31" value="" style="edgeStyle=orthogonalEdgeStyle;rounded=0;orthogonalLoop=1;jettySize=auto;html=1;" edge="1" parent="1" source="e_UlXS3KdR4UI5Fzrc_h-28" target="e_UlXS3KdR4UI5Fzrc_h-30">
          <mxGeometry relative="1" as="geometry" />
        </mxCell>
        <mxCell id="e_UlXS3KdR4UI5Fzrc_h-28" value="membuat file &quot;proses_pesan&quot;" style="whiteSpace=wrap;html=1;" vertex="1" parent="1">
          <mxGeometry x="354" y="1080" width="120" height="60" as="geometry" />
        </mxCell>
        <mxCell id="e_UlXS3KdR4UI5Fzrc_h-33" value="" style="edgeStyle=orthogonalEdgeStyle;rounded=0;orthogonalLoop=1;jettySize=auto;html=1;" edge="1" parent="1" source="e_UlXS3KdR4UI5Fzrc_h-30" target="e_UlXS3KdR4UI5Fzrc_h-32">
          <mxGeometry relative="1" as="geometry" />
        </mxCell>
        <mxCell id="e_UlXS3KdR4UI5Fzrc_h-30" value="menambahkan section &quot;contact us&quot;" style="whiteSpace=wrap;html=1;" vertex="1" parent="1">
          <mxGeometry x="354" y="1180" width="120" height="60" as="geometry" />
        </mxCell>
        <mxCell id="e_UlXS3KdR4UI5Fzrc_h-35" value="" style="edgeStyle=orthogonalEdgeStyle;rounded=0;orthogonalLoop=1;jettySize=auto;html=1;" edge="1" parent="1" source="e_UlXS3KdR4UI5Fzrc_h-32" target="e_UlXS3KdR4UI5Fzrc_h-34">
          <mxGeometry relative="1" as="geometry" />
        </mxCell>
        <mxCell id="e_UlXS3KdR4UI5Fzrc_h-32" value="membuat file&amp;nbsp;&lt;div&gt;&quot;contact_output&quot;&lt;/div&gt;" style="whiteSpace=wrap;html=1;" vertex="1" parent="1">
          <mxGeometry x="354" y="1270" width="120" height="60" as="geometry" />
        </mxCell>
        <mxCell id="e_UlXS3KdR4UI5Fzrc_h-37" value="" style="edgeStyle=orthogonalEdgeStyle;rounded=0;orthogonalLoop=1;jettySize=auto;html=1;" edge="1" parent="1" source="e_UlXS3KdR4UI5Fzrc_h-34" target="e_UlXS3KdR4UI5Fzrc_h-36">
          <mxGeometry relative="1" as="geometry" />
        </mxCell>
        <mxCell id="e_UlXS3KdR4UI5Fzrc_h-34" value="menambahkan&amp;nbsp;&lt;div&gt;footer&lt;/div&gt;" style="whiteSpace=wrap;html=1;" vertex="1" parent="1">
          <mxGeometry x="354" y="1370" width="120" height="60" as="geometry" />
        </mxCell>
        <mxCell id="e_UlXS3KdR4UI5Fzrc_h-36" value="MULAI" style="ellipse;whiteSpace=wrap;html=1;" vertex="1" parent="1">
          <mxGeometry x="354" y="1470" width="120" height="80" as="geometry" />
        </mxCell>
        <mxCell id="e_UlXS3KdR4UI5Fzrc_h-38" value="pake ini" style="shape=trapezoid;perimeter=trapezoidPerimeter;whiteSpace=wrap;html=1;fixedSize=1;" vertex="1" parent="1">
          <mxGeometry x="190" y="160" width="120" height="60" as="geometry" />
        </mxCell>
      </root>
    </mxGraphModel>
  </diagram>
</mxfile>
